# AST/ASF file generated using VICON BodyLanguage
# -----------------------------------------------
:version 1.10
:name VICON
:units
  mass 1.0
  length 0.45
  angle deg
:documentation
   .ast/.asf automatically generated from VICON data using
   VICON BodyBuilder and BodyLanguage model FoxedUp or BRILLIANT.MOD
:root
   order TX TY TZ RX RY RZ
   axis XYZ
   position 0 0 0  
   orientation 0 0 0 
:bonedata
  begin
     id 1 
     name lhipjoint
     direction 0.714689 -0.624256 0.315473 
     length 2.45343 
     axis 0 0 0  XYZ
  end
  begin
     id 2 
     name lfemur
     direction 0.34202 -0.939693 0  
     length 6.59069  
     axis 0 0 20  XYZ
    dof rx ry rz
    limits (-160.0 20.0)
           (-70.0 70.0)
           (-60.0 70.0)
  end
  begin
     id 3 
     name ltibia
     direction 0.34202 -0.939693 0   
     length 6.73476   
     axis 0 0 20   XYZ
    dof rx
    limits (-10.0 170.0)
  end
  begin
     id 4 
     name lfoot
     direction 0.0718085 -0.197292 0.977711   
     length 1.52607   
     axis -90 7.62852e-016 20   XYZ
    dof rx rz
    limits (-45.0 90.0)
           (-70.0 20.0)
  end
  begin
     id 5 
     name ltoes
     direction 1.53553e-011 -4.22024e-011 1   
     length 0.777832   
     axis -90 7.62852e-016 20   XYZ
    dof rx
    limits (-90.0 20.0)
  end
  begin
     id 6 
     name rhipjoint
     direction -0.727419 -0.612432 0.309497   
     length 2.50079  
     axis 0 0 0  XYZ 
  end
  begin
     id 7 
     name rfemur
     direction -0.34202 -0.939693 0   
     length 6.51665   
     axis 0 0 -20   XYZ
    dof rx ry rz
    limits (-160.0 20.0)
           (-70.0 70.0)
           (-70.0 60.0)
  end
  begin
     id 8 
     name rtibia
     direction -0.34202 -0.939693 0   
     length 6.48919   
     axis 0 0 -20   XYZ
    dof rx
    limits (-10.0 170.0)
 end
 begin
     id 9 
     name rfoot
     direction -0.112205 -0.308282 0.944655   
     length 1.68717  
     axis -90 -7.62852e-016 -20   XYZ
    dof rx rz
    limits (-45.0 90.0)
           (-20.0 70.0)
  end
  begin
     id 10 
     name rtoes
     direction -1.53583e-011 -4.21993e-011 1   
     length 0.846859   
     axis -90 -7.62852e-016 -20   XYZ
    dof rx
    limits (-90.0 20.0)
  end
  begin
     id 11 
     name lowerback
     direction -0.00119603 0.996364 -0.0851956   
     length 1.67242   
     axis 0 0 0   XYZ
    dof rx ry rz
    limits (-20.0 45.0)
           (-30.0 30.0)
           (-30.0 30.0)
  end
  begin
     id 12 
     name upperback
     direction -0.00531001 0.998318 0.0577248   
     length 1.64819   
     axis 0 0 0   XYZ
    dof rx ry rz
    limits (-20.0 45.0)
           (-30.0 30.0)
           (-30.0 30.0)
  end
  begin
     id 13 
     name thorax
     direction -0.00653676 0.995132 0.0983291   
     length 1.67429   
     axis 0 0 0   XYZ
    dof rx ry rz
    limits (-20.0 45.0)
           (-30.0 30.0)
           (-30.0 30.0)
  end
  begin
     id 14 
     name lowerneck
     direction 0.0141424 0.999886 0.00525412   
     length 1.59623   
     axis 0 0 0   XYZ
    dof rx ry rz
    limits (-20.0 45.0)
           (-30.0 30.0)
           (-30.0 30.0)
  end
  begin
     id 15 
     name upperneck
     direction -0.0640064 0.987178 -0.146232   
     length 1.59576   
     axis 0 0 0   XYZ
    dof rx ry rz
    limits (-20.0 45.0)
           (-30.0 30.0)
           (-30.0 30.0)
  end
  begin
     id 16
     name head
     direction -0.0222942 0.998496 -0.0500859  
     length 1.60959  
     axis 0 0 0   XYZ
    dof rx ry rz
    limits (-20.0 45.0)
           (-30.0 30.0)
           (-30.0 30.0)
  end
  begin
     id 17 
     name lclavicle
     direction 0.908549 0.392612 0.142806  
     length 2.80649  
     axis 0 0 0   XYZ
    dof ry rz
    limits (-20.0 10.0)
           (0.0 20.0)
  end
  begin
     id 18 
     name lhumerus
     direction 1 -4.48968e-011 1.08832e-028   
     length 4.2884   
     axis -180 -30 -90   XYZ
    dof rx ry rz
    limits (-60.0 90.0)
           (-90.0 90.0)
           (-90.0 90.0)
  end
  begin
     id 19
     name lradius
     direction 1 -4.48952e-011 -3.02642e-028   
     length 3.06552   
     axis -180 -30 -90   XYZ
    dof rx
    limits (-10.0 170.0)
  end
  begin
     id 20
     name lwrist
     direction 1 -4.49014e-011 1.58672e-027   
     length 1.53276   
     axis -1.65735e-015 90 90   XYZ
    dof ry
    limits (-180.0 0.0)
 end
  begin
     id 21 
     name lhand
     direction 1 -4.48928e-011 3.17344e-027   
     length 0.753045   
     axis -2.02492e-015 90 90   XYZ
    dof rx rz
    limits (-90.0 90.0)
           (-45.0 45.0)
  end
  begin
     id 22 
     name lfingers
     direction 1 -4.48958e-011 6.34687e-027   
     length 0.607124   
     axis -4.04985e-015 90 90   XYZ
    dof rx
    limits (0.0 90.0)
  end
  begin
     id 23
     name lthumb
     direction 0.707107 -6.34905e-011 0.707107   
     length 0.871712   
     axis -90 45 2.85299e-015   XYZ
    dof rx rz
    limits (-45.0 45.0)
           (-45.0 45.0)
  end
  begin
     id 24 
     name rclavicle
     direction -0.885098 0.45949 0.0739604   
     length 2.9478  
     axis 0 0 0   XYZ 
    dof ry rz
    limits (-10.0 20.0)
           (-20.0 0.0)
  end
  begin
     id 25 
     name rhumerus
     direction -1 -4.4898e-011 -2.61739e-027  
     length 4.52172   
     axis -180 30 90   XYZ
    dof rx ry rz
    limits (-90.0 60.0)
           (-90.0 90.0)
           (-90.0 90.0)
  end
  begin
     id 26 
     name rradius
     direction -1 -4.48945e-011 9.02552e-028   
     length 2.8914   
     axis -180 30 90   XYZ
    dof rx
    limits (-10.0 170.0)
  end
  begin
     id 27 
     name rwrist
     direction -1 -4.49018e-011 1.58672e-027   
     length 1.4457   
     axis -1.65735e-015 -90 -90   XYZ
    dof ry
    limits (-180.0 0.0)
  end
  begin
     id 28
     name rhand
     direction -1 -4.48825e-011 3.17344e-027   
     length 0.680541   
     axis -2.02492e-015 -90 -90   XYZ
    dof rx rz
    limits (-90.0 90.0)
           (-45.0 45.0)
  end
  begin
     id 29
     name rfingers
     direction -1 -4.49067e-011 6.34687e-027   
     length 0.54867   
     axis -4.04985e-015 -90 -90   XYZ
    dof rx
    limits (0.0 90.0)
  end
  begin
     id 30
     name rthumb
     direction -0.707107 -6.34833e-011 0.707107   
     length 0.787783   
     axis -90 -45 -2.85299e-015   XYZ
    dof rx rz
    limits (-45.0 45.0)
           (-45.0 45.0)
  end
:hierarchy
  begin
    root lhipjoint rhipjoint lowerback
    lhipjoint lfemur
    lfemur ltibia
    ltibia lfoot
    lfoot ltoes
    rhipjoint rfemur
    rfemur rtibia
    rtibia rfoot
    rfoot rtoes
    lowerback upperback
    upperback thorax
    thorax lowerneck lclavicle rclavicle
    lowerneck upperneck
    upperneck head
    lclavicle lhumerus
    lhumerus lradius
    lradius lwrist
    lwrist lhand lthumb
    lhand lfingers
    rclavicle rhumerus
    rhumerus rradius
    rradius rwrist
    rwrist rhand rthumb
    rhand rfingers
  end

#!OML:ASF E:\emotionWalksFemale\Project 1\Capture day 1\Session 1\Female1.ASF
:FULLY-SPECIFIED
:DEGREES
1
root 9.42524 15.4529 20.9348 -177.677 15.7347 -178.571
lowerback 7.37037 0.802247 1.64077
upperback -4.40343 1.40133 0.733132
thorax -8.78134 0.64367 -0.358336
lowerneck -6.58052 0.305385 -4.80406
upperneck 15.0007 0.712409 4.80999
head 5.56381 0.596647 2.37027
rclavicle -3.84151e-014 -1.19271e-015
rhumerus -41.5721 3.84456 -86.6811
rradius 40.3813
rwrist 17.5178
rhand 1.54077 -49.8304
rfingers 7.12502
rthumb 27.0653 -77.9107
lclavicle -3.84151e-014 -1.19271e-015
lhumerus -39.4784 -1.112 88.7826
lradius 39.719
lwrist -7.88934
lhand -2.79323 -37.4303
lfingers 7.12502
lthumb 22.9124 -8.77169
rfemur -6.99564 17.1131 24.1584
rtibia 22.2827
rfoot -15.3653 -15.9307
rtoes -10.5426
lfemur -6.67601 -5.82012 -22.0177
ltibia 26.4269
lfoot -23.7711 22.2326
ltoes -38.8291
2
root 9.42694 15.4512 20.9389 -177.703 15.625 -178.495
lowerback 7.46018 0.748082 1.75136
upperback -4.35425 1.33814 0.720913
thorax -8.77915 0.604726 -0.424973
lowerneck -6.49481 0.312278 -4.68189
upperneck 14.7333 0.703776 4.73733
head 5.46709 0.586907 2.32139
rclavicle -1.41634e-015 -1.59028e-014
rhumerus -41.5762 3.89448 -86.6557
rradius 41.4173
rwrist 16.4949
rhand 2.14451 -52.4901
rfingers 7.12502
rthumb 27.6428 -80.4792
lclavicle -1.41634e-015 -1.59028e-014
lhumerus -39.3136 -0.800372 88.371
lradius 39.7346
lwrist -7.9992
lhand -2.49407 -37.5831
lfingers 7.12502
lthumb 23.1994 -8.96035
rfemur -6.91748 17.1323 24.2849
rtibia 22.2259
rfoot -15.381 -16.0502
rtoes -10.2211
lfemur -6.68737 -5.88534 -21.9051
ltibia 26.469
lfoot -23.6971 22.2476
ltoes -39.0901
3
root 9.42883 15.4522 20.9394 -177.713 15.599 -178.521
lowerback 7.45695 0.742251 1.77939
upperback -4.29179 1.32217 0.650055
thorax -8.70718 0.592073 -0.512536
lowerneck -6.48544 0.301896 -4.50844
upperneck 14.4949 0.665344 4.67987
head 5.39411 0.566863 2.26811
rclavicle 1.82944e-014 1.0635e-014
rhumerus -41.4175 3.49724 -86.1861
rradius 41.2468
rwrist 17.2026
rhand 1.81228 -51.0768
rfingers 7.12502
rthumb 27.325 -79.1164
lclavicle 1.82944e-014 1.0635e-014
lhumerus -39.1622 -0.631517 87.9288
lradius 39.8467
lwrist -7.91654
lhand -2.10672 -37.5792
lfingers 7.12502
lthumb 23.571 -9.00372
rfemur -6.93627 17.0791 24.2783
rtibia 22.2938
rfoot -15.4174 -16.0397
rtoes -10.3628
lfemur -6.68211 -5.93383 -21.9227
ltibia 26.4568
lfoot -23.6241 22.2889
ltoes -39.2582
4
root 9.42967 15.4542 20.9436 -177.648 15.7336 -178.603
lowerback 7.40031 0.775067 1.72176
upperback -4.24962 1.34934 0.583791
thorax -8.62689 0.606259 -0.552752
lowerneck -6.56517 0.302981 -4.36376
upperneck 14.4001 0.655637 4.5987
head 5.37978 0.560759 2.21694
rclavicle 1.26663e-014 1.98785e-015
rhumerus -41.2087 3.28593 -85.8506
rradius 41.5061
rwrist 16.864
rhand 1.85598 -51.4198
rfingers 7.12502
rthumb 27.3668 -79.4528
lclavicle 1.26663e-014 1.98785e-015
lhumerus -38.9549 -0.46367 87.5403
lradius 39.8563
lwrist -7.8467
lhand -2.62222 -37.5963
lfingers 7.12502
lthumb 23.0765 -8.95807
rfemur -7.09592 17.0694 24.1497
rtibia 22.3448
rfoot -15.3873 -15.8508
rtoes -10.6119
lfemur -6.76759 -5.88777 -22.0027
ltibia 26.4363
lfoot -23.5682 22.338
ltoes -39.1256
5
root 9.42971 15.4542 20.9497 -177.602 15.8424 -178.661
lowerback 7.36255 0.758352 1.66832
upperback -4.18287 1.31427 0.567982
thorax -8.53357 0.5916 -0.532908
lowerneck -6.61707 0.353206 -4.33557
upperneck 14.2263 0.714895 4.57247
head 5.33212 0.583653 2.20532
rclavicle 6.03187e-015 -1.19271e-015
rhumerus -40.7514 2.75842 -85.4265
rradius 41.8453
rwrist 16.3293
rhand 1.06257 -51.1706
rfingers 7.12502
rthumb 26.6077 -79.3211
lclavicle 6.03187e-015 -1.19271e-015
lhumerus -38.6551 -0.111502 87.1431
lradius 39.69
lwrist -7.83094
lhand -3.0959 -37.7811
lfingers 7.12502
lthumb 22.6219 -9.08675
rfemur -7.27239 17.1159 24.0546
rtibia 22.4333
rfoot -15.3709 -15.7464
rtoes -10.4119
lfemur -6.8155 -5.80632 -22.0505
ltibia 26.3873
lfoot -23.5079 22.4156
ltoes -39.1965
6
root 9.43005 15.4534 20.9532 -177.592 15.8097 -178.724
lowerback 7.59266 0.702597 1.47074
upperback -4.27395 1.23535 0.669375
thorax -8.77529 0.566716 -0.30785
lowerneck -6.54902 0.43165 -4.52983
upperneck 14.1123 0.823295 4.68696
head 5.27836 0.631352 2.27794
rclavicle 4.63479e-014 8.05078e-015
rhumerus -40.7388 2.42311 -84.8534
rradius 42.2508
rwrist 16.2436
rhand -0.821382 -48.8184
rfingers 7.12502
rthumb 24.8034 -77.2299
lclavicle 4.63479e-014 8.05078e-015
lhumerus -38.6829 0.384879 86.8479
lradius 39.6006
lwrist -7.96077
lhand -3.01922 -37.9834
lfingers 7.12502
lthumb 22.6955 -9.29803
rfemur -7.36505 17.1133 23.9922
rtibia 22.5149
rfoot -15.3554 -15.815
rtoes -10.2547
lfemur -6.82222 -5.80784 -22.0981
ltibia 26.3066
lfoot -23.3606 22.4572
ltoes -39.455
7
root 9.43282 15.4571 20.9605 -177.36 16.2575 -178.756
lowerback 7.26284 0.805481 1.44801
upperback -4.19033 1.35555 0.610252
thorax -8.48793 0.626698 -0.368932
lowerneck -6.56565 0.506383 -4.53984
upperneck 13.8032 0.895201 4.81406
head 5.18076 0.666244 2.31904
rclavicle -2.99544e-014 2.18663e-015
rhumerus -40.4819 2.12915 -84.5022
rradius 42.506
rwrist 16.4137
rhand -1.80838 -47.4374
rfingers 7.12502
rthumb 23.8572 -75.9758
lclavicle -2.99544e-014 2.18663e-015
lhumerus -38.3175 0.630761 86.3366
lradius 39.5651
lwrist -7.97067
lhand -3.06081 -37.8575
lfingers 7.12502
lthumb 22.6556 -9.16731
rfemur -7.74712 17.3218 23.8473
rtibia 22.5612
rfoot -15.2848 -15.5663
rtoes -10.175
lfemur -7.03789 -5.57738 -22.1276
ltibia 26.2285
lfoot -23.3551 22.6046
ltoes -39.3537
8
root 9.43349 15.4586 20.9598 -177.465 15.8496 -178.82
lowerback 7.80676 0.643087 1.28735
upperback -4.3882 1.14908 0.726663
thorax -9.03159 0.536854 -0.135192
lowerneck -6.53384 0.502101 -4.58584
upperneck 13.9688 0.923774 4.64283
head 5.22651 0.670154 2.27709
rclavicle -5.10255e-014 -1.0138e-014
rhumerus -40.8363 2.02498 -83.8327
rradius 42.8042
rwrist 16.4046
rhand -1.46339 -47.4259
rfingers 7.12502
rthumb 24.188 -75.9207
lclavicle -5.10255e-014 -1.0138e-014
lhumerus -38.5373 0.988883 86.0978
lradius 39.4647
lwrist -7.97444
lhand -3.3721 -37.7694
lfingers 7.12502
lthumb 22.3568 -9.04294
rfemur -7.57016 17.1591 23.8609
rtibia 22.5614
rfoot -15.4202 -15.7934
rtoes -9.93293
lfemur -6.94286 -5.93665 -22.1771
ltibia 26.1467
lfoot -23.2906 22.6106
ltoes -39.5911
9
root 9.43403 15.4608 20.9634 -177.311 16.2711 -178.779
lowerback 8.05101 0.748924 1.23153
upperback -4.55078 1.30364 0.784458
thorax -9.35485 0.617323 -0.0718053
lowerneck -6.63888 0.506255 -4.56459
upperneck 14.2152 0.949186 4.55768
head 5.32051 0.683244 2.25314
rclavicle -3.72224e-014 -1.17283e-014
rhumerus -41.0464 2.02542 -83.4123
rradius 43.4704
rwrist 15.643
rhand -0.554379 -49.0923
rfingers 7.12502
rthumb 25.0593 -77.4683
lclavicle -3.72224e-014 -1.17283e-014
lhumerus -38.6011 1.3829 85.6984
lradius 39.3372
lwrist -8.09378
lhand -3.28574 -38.0154
lfingers 7.12502
lthumb 22.4397 -9.29898
rfemur -7.81995 17.3722 23.8102
rtibia 22.5722
rfoot -15.3932 -15.6165
rtoes -10.0837
lfemur -7.02145 -5.77971 -22.1502
ltibia 26.0852
lfoot -23.5608 22.6639
ltoes -38.9239
10
root 9.43433 15.4615 20.9639 -177.345 16.0299 -178.783
lowerback 8.20582 0.63915 1.3025
upperback -4.5531 1.16669 0.783775
thorax -9.44885 0.545135 -0.0926238
lowerneck -6.7418 0.535706 -4.57352
upperneck 14.2967 0.99186 4.57136
head 5.36121 0.705792 2.26368
rclavicle -5.0454e-014 -2.98177e-015
rhumerus -41.0765 1.83611 -82.9298
rradius 43.7544
rwrist 15.5868
rhand -0.382955 -49.6693
rfingers 7.12502
rthumb 25.2235 -78.0223
lclavicle -5.0454e-014 -2.98177e-015
lhumerus -38.4763 1.75392 85.2819
lradius 39.2351
lwrist -8.15508
lhand -2.65281 -37.9851
lfingers 7.12502
lthumb 23.0471 -9.34317
rfemur -7.74906 17.2785 23.8498
rtibia 22.5638
rfoot -15.4606 -15.7512
rtoes -9.572
lfemur -6.97449 -5.97197 -22.1263
ltibia 26.0291
lfoot -23.6757 22.4902
ltoes -38.4628
11
root 9.43741 15.4602 20.9682 -177.212 16.3501 -178.769
lowerback 8.03171 0.737719 1.32156
upperback -4.47362 1.28828 0.72699
thorax -9.25572 0.601163 -0.179895
lowerneck -6.8411 0.573916 -4.54123
upperneck 14.1535 1.01979 4.6695
head 5.33158 0.723601 2.28933
rclavicle 1.26974e-014 1.07344e-014
rhumerus -41.0245 1.38471 -82.4598
rradius 43.9237
rwrist 15.5683
rhand -0.294731 -50.8907
rfingers 7.12502
rthumb 25.308 -79.2317
lclavicle 1.26974e-014 1.07344e-014
lhumerus -38.1166 1.94608 84.8282
lradius 39.0099
lwrist -8.11581
lhand -2.44247 -37.8208
lfingers 7.12502
lthumb 23.249 -9.20425
rfemur -7.96949 17.4485 23.808
rtibia 22.5603
rfoot -15.3518 -15.5826
rtoes -9.77554
lfemur -7.08186 -5.73015 -22.1115
ltibia 25.9847
lfoot -23.6006 22.6346
ltoes -38.6193
12
root 9.44194 15.4586 20.969 -177.154 16.2091 -178.734
lowerback 7.86332 0.689926 1.45771
upperback -4.35082 1.22222 0.64368
thorax -9.01823 0.557882 -0.330591
lowerneck -6.92172 0.584847 -4.31879
upperneck 13.9285 1.00535 4.61378
head 5.27777 0.718019 2.23108
rclavicle -2.39784e-015 6.85807e-015
rhumerus -40.9552 0.90676 -81.9879
rradius 43.8467
rwrist 15.0887
rhand -0.197186 -51.6549
rfingers 7.12502
rthumb 25.4015 -79.9827
lclavicle -2.39784e-015 6.85807e-015
lhumerus -37.8549 1.94617 84.3551
lradius 38.9143
lwrist -8.1976
lhand -2.79873 -37.7854
lfingers 7.12502
lthumb 22.9071 -9.12614
rfemur -7.99382 17.4275 23.8782
rtibia 22.5424
rfoot -15.3439 -15.6942
rtoes -9.919
lfemur -7.10936 -5.73344 -22.0295
ltibia 25.8983
lfoot -23.3948 22.6062
ltoes -39.0434
13
root 9.44356 15.4639 20.9742 -176.905 16.4888 -178.659
lowerback 7.76894 0.766594 1.5219
upperback -4.37924 1.33317 0.639927
thorax -8.99065 0.608974 -0.386505
lowerneck -6.92581 0.56898 -4.12053
upperneck 13.7298 0.982819 4.37227
head 5.22094 0.695001 2.11807
rclavicle -2.37237e-014 7.45443e-015
rhumerus -40.832 0.624337 -81.4514
rradius 43.5254
rwrist 14.5528
rhand -0.339841 -50.9825
rfingers 7.12502
rthumb 25.2648 -79.3296
lclavicle -2.37237e-014 7.45443e-015
lhumerus -37.893 1.91554 83.9738
lradius 39.0442
lwrist -8.27553
lhand -3.09699 -37.7335
lfingers 7.12502
lthumb 22.6209 -9.03907
rfemur -8.3195 17.3875 23.8428
rtibia 22.5052
rfoot -15.2242 -15.3641
rtoes -10.2689
lfemur -7.28427 -5.59223 -21.9367
ltibia 25.815
lfoot -23.4109 22.68
ltoes -38.9468
14
root 9.44702 15.47 20.9777 -176.876 16.1948 -178.691
lowerback 7.8567 0.630318 1.50963
upperback -4.38634 1.15209 0.658616
thorax -9.05364 0.521642 -0.333318
lowerneck -6.97457 0.590076 -4.14685
upperneck 13.6977 1.02063 4.31012
head 5.21804 0.706301 2.10516
rclavicle 3.26193e-014 -4.77083e-015
rhumerus -40.7467 0.364769 -80.8491
rradius 43.3865
rwrist 14.7145
rhand -0.336334 -51.3706
rfingers 7.12502
rthumb 25.2682 -79.7172
lclavicle 3.26193e-014 -4.77083e-015
lhumerus -37.8906 2.12152 83.6004
lradius 38.9404
lwrist -8.41857
lhand -3.44666 -37.8359
lfingers 7.12502
lthumb 22.2852 -9.10086
rfemur -8.29801 17.1584 23.844
rtibia 22.4196
rfoot -15.1201 -15.4676
rtoes -10.7213
lfemur -7.33057 -5.86553 -21.9137
ltibia 25.7266
lfoot -23.3375 22.6622
ltoes -39.0557
